<svg width="40" height="41" viewBox="0 0 40 41" fill="none" xmlns="http://www.w3.org/2000/svg">
<path d="M20 3.16016C16.5388 3.16016 13.1554 4.18651 10.2775 6.10944C7.39967 8.03236 5.15665 10.7655 3.83212 13.9632C2.50758 17.1609 2.16102 20.6796 2.83627 24.0742C3.51151 27.4689 5.17822 30.5871 7.62564 33.0345C10.0731 35.4819 13.1913 37.1487 16.5859 37.8239C19.9806 38.4991 23.4993 38.1526 26.697 36.828C29.8947 35.5035 32.6278 33.2605 34.5507 30.3826C36.4737 27.5048 37.5 24.1213 37.5 20.6602C37.5 16.0189 35.6563 11.5677 32.3744 8.28579C29.0925 5.0039 24.6413 3.16016 20 3.16016ZM12.5 33.6352V31.1352C12.4451 30.0796 12.8076 29.0448 13.5093 28.2543C14.2109 27.4637 15.1954 26.9809 16.25 26.9102H23.75C24.8069 26.9809 25.7933 27.4655 26.4953 28.2587C27.1973 29.052 27.5583 30.09 27.5 31.1477V33.6477C25.2231 34.974 22.6351 35.6729 20 35.6729C17.3649 35.6729 14.7769 34.974 12.5 33.6477V33.6352ZM30 31.8102V31.0477C30.0341 29.3435 29.3987 27.6938 28.2302 26.4529C27.0616 25.2119 25.4532 24.4785 23.75 24.4102H16.25C14.5457 24.4753 12.9354 25.2077 11.7662 26.4494C10.597 27.6911 9.96268 29.3426 10 31.0477V31.7852C7.73571 29.7599 6.13971 27.0949 5.4232 24.1427C4.70669 21.1905 4.90344 18.0904 5.98742 15.2525C7.0714 12.4146 8.99152 9.9727 11.4937 8.24996C13.9959 6.52722 16.9621 5.60482 20 5.60482C23.0379 5.60482 26.0042 6.52722 28.5063 8.24996C31.0085 9.9727 32.9286 12.4146 34.0126 15.2525C35.0966 18.0904 35.2933 21.1905 34.5768 24.1427C33.8603 27.0949 32.2643 29.7599 30 31.7852V31.8102Z" fill="#799C8A"/>
<path d="M20 9.41016C18.7639 9.41016 17.5555 9.77671 16.5277 10.4635C15.4999 11.1502 14.6988 12.1263 14.2258 13.2684C13.7527 14.4104 13.6289 15.6671 13.8701 16.8795C14.1113 18.0919 14.7065 19.2055 15.5806 20.0796C16.4547 20.9537 17.5683 21.5489 18.7807 21.7901C19.9931 22.0312 21.2497 21.9075 22.3918 21.4344C23.5338 20.9614 24.5099 20.1603 25.1967 19.1325C25.8834 18.1047 26.25 16.8963 26.25 15.6602C26.25 14.0026 25.5915 12.4128 24.4194 11.2407C23.2473 10.0686 21.6576 9.41016 20 9.41016ZM20 19.4102C19.2583 19.4102 18.5333 19.1902 17.9166 18.7782C17.2999 18.3661 16.8193 17.7804 16.5355 17.0952C16.2516 16.41 16.1774 15.656 16.3221 14.9286C16.4668 14.2011 16.8239 13.533 17.3484 13.0085C17.8728 12.4841 18.541 12.1269 19.2684 11.9822C19.9958 11.8375 20.7498 11.9118 21.4351 12.1956C22.1203 12.4794 22.706 12.9601 23.118 13.5768C23.5301 14.1935 23.75 14.9185 23.75 15.6602C23.75 16.6547 23.3549 17.6085 22.6517 18.3118C21.9484 19.0151 20.9946 19.4102 20 19.4102Z" fill="#799C8A"/>
</svg>
