<svg width="20" height="20" viewBox="0 0 20 20" fill="none" xmlns="http://www.w3.org/2000/svg">
<path d="M4.2164 2.50001C3.85806 2.50001 3.5164 2.61667 3.19973 2.85001C2.88306 3.08334 2.69973 3.38334 2.6164 3.75001L1.75806 7.42501C1.54973 8.33334 1.7164 9.10001 2.2414 9.77501C2.3414 9.87501 2.4414 9.97501 2.53306 10.0583C3.02473 10.5333 3.5664 10.8333 4.34973 10.8333C5.13306 10.8333 5.75806 10.4917 6.22473 10.0417C6.74973 10.5583 7.38306 10.8333 8.1664 10.8333C8.8664 10.8333 9.53306 10.525 9.99973 10.0583C10.5664 10.5833 11.2081 10.8333 11.9164 10.8333C12.6414 10.8333 13.2581 10.5583 13.7831 10.0417C14.2581 10.5167 14.8831 10.8333 15.6747 10.8333C16.4664 10.8333 17.0247 10.5417 17.4997 10.05C17.5747 9.97501 17.6497 9.89167 17.7331 9.80834C18.2831 9.12501 18.4497 8.33334 18.2414 7.42501L17.3831 3.75001C17.2747 3.38334 17.0831 3.08334 16.7747 2.85001C16.4944 2.62257 16.1441 2.49893 15.7831 2.50001H4.2164ZM15.7414 4.14167L16.6414 7.81667C16.7164 8.17501 16.6414 8.50001 16.4081 8.79167C16.1997 9.05001 15.9414 9.16667 15.6247 9.16667C15.3664 9.16667 15.1414 9.08334 14.9581 8.88334C14.7747 8.69167 14.6747 8.46667 14.6497 8.20001L14.1414 4.16667L15.7414 4.14167ZM4.2164 4.16667H5.85806L5.34973 8.20001C5.24973 8.85834 4.92473 9.16667 4.37473 9.16667C4.03306 9.16667 3.77473 9.05001 3.5914 8.79167C3.35806 8.50001 3.28306 8.17501 3.35806 7.81667L4.2164 4.16667ZM7.5414 4.16667H9.1664V8.08334C9.1664 8.37501 9.07473 8.62501 8.8664 8.85001C8.65807 9.06667 8.39973 9.16667 8.08306 9.16667C7.79973 9.16667 7.55806 9.06667 7.3664 8.82501C7.17473 8.58334 7.08306 8.33334 7.08306 8.05001V7.91667L7.5414 4.16667ZM10.8331 4.16667H12.4581L12.9164 7.91667C12.9831 8.26667 12.9164 8.55834 12.6747 8.80834C12.4581 9.05834 12.1747 9.16667 11.8331 9.16667C11.5747 9.16667 11.3414 9.06667 11.1331 8.85001C11.0351 8.74819 10.9582 8.62808 10.9068 8.49653C10.8553 8.36498 10.8302 8.22457 10.8331 8.08334V4.16667ZM2.49973 11.6917V15.8333C2.49973 16.7583 3.2414 17.5 4.1664 17.5H15.8331C16.2751 17.5 16.699 17.3244 17.0116 17.0119C17.3241 16.6993 17.4997 16.2754 17.4997 15.8333V11.7083C17.0414 12.1917 16.4581 12.4667 15.8331 12.5C14.9997 12.525 14.3747 12.2833 13.7831 11.7083C13.2831 12.2083 12.6164 12.5 11.9164 12.5C11.1664 12.5 10.4997 12.2 9.99973 11.725C9.52473 12.2 8.87473 12.5 8.14973 12.5C7.3914 12.5 6.72473 12.2083 6.22473 11.7083C5.7414 12.2 5.08306 12.5 4.35806 12.5C3.60806 12.5 3.04973 12.2083 2.49973 11.6917V11.6917Z" fill="#799C8A"/>
</svg>
