<svg width="18" height="16" viewBox="0 0 18 16" fill="none" xmlns="http://www.w3.org/2000/svg">
<path d="M3.2164 0.300056C2.85806 0.300056 2.5164 0.416722 2.19973 0.650056C1.88306 0.883389 1.69973 1.18339 1.6164 1.55006L0.758065 5.22506C0.549731 6.13339 0.716398 6.90006 1.2414 7.57506C1.3414 7.67506 1.4414 7.77506 1.53306 7.85839C2.02473 8.33339 2.5664 8.63339 3.34973 8.63339C4.13306 8.63339 4.75806 8.29172 5.22473 7.84172C5.74973 8.35839 6.38307 8.63339 7.1664 8.63339C7.8664 8.63339 8.53306 8.32506 8.99973 7.85839C9.5664 8.38339 10.2081 8.63339 10.9164 8.63339C11.6414 8.63339 12.2581 8.35839 12.7831 7.84172C13.2581 8.31672 13.8831 8.63339 14.6747 8.63339C15.4664 8.63339 16.0247 8.34172 16.4997 7.85006C16.5747 7.77506 16.6497 7.69172 16.7331 7.60839C17.2831 6.92506 17.4497 6.13339 17.2414 5.22506L16.3831 1.55006C16.2747 1.18339 16.0831 0.883389 15.7747 0.650056C15.4944 0.422618 15.1441 0.298982 14.7831 0.300056H3.2164ZM14.7414 1.94172L15.6414 5.61672C15.7164 5.97506 15.6414 6.30006 15.4081 6.59172C15.1997 6.85006 14.9414 6.96672 14.6247 6.96672C14.3664 6.96672 14.1414 6.88339 13.9581 6.68339C13.7747 6.49172 13.6747 6.26672 13.6497 6.00006L13.1414 1.96672L14.7414 1.94172ZM3.2164 1.96672H4.85807L4.34973 6.00006C4.24973 6.65839 3.92473 6.96672 3.37473 6.96672C3.03306 6.96672 2.77473 6.85006 2.5914 6.59172C2.35806 6.30006 2.28306 5.97506 2.35806 5.61672L3.2164 1.96672ZM6.5414 1.96672H8.1664V5.88339C8.1664 6.17506 8.07473 6.42506 7.8664 6.65006C7.65807 6.86672 7.39973 6.96672 7.08306 6.96672C6.79973 6.96672 6.55806 6.86672 6.3664 6.62506C6.17473 6.38339 6.08307 6.13339 6.08307 5.85006V5.71672L6.5414 1.96672ZM9.83307 1.96672H11.4581L11.9164 5.71672C11.9831 6.06672 11.9164 6.35839 11.6747 6.60839C11.4581 6.85839 11.1747 6.96672 10.8331 6.96672C10.5747 6.96672 10.3414 6.86672 10.1331 6.65006C10.0351 6.54824 9.95824 6.42813 9.90676 6.29658C9.85529 6.16503 9.83025 6.02462 9.83307 5.88339V1.96672ZM1.49973 9.49172V13.6334C1.49973 14.5584 2.2414 15.3001 3.1664 15.3001H14.8331C15.2751 15.3001 15.699 15.1245 16.0116 14.8119C16.3241 14.4993 16.4997 14.0754 16.4997 13.6334V9.50839C16.0414 9.99172 15.4581 10.2667 14.8331 10.3001C13.9997 10.3251 13.3747 10.0834 12.7831 9.50839C12.2831 10.0084 11.6164 10.3001 10.9164 10.3001C10.1664 10.3001 9.49973 10.0001 8.99973 9.52506C8.52473 10.0001 7.87473 10.3001 7.14973 10.3001C6.3914 10.3001 5.72473 10.0084 5.22473 9.50839C4.7414 10.0001 4.08306 10.3001 3.35806 10.3001C2.60806 10.3001 2.04973 10.0084 1.49973 9.49172Z" fill="#799C8A"/>
</svg>
