<svg width="16" height="5" viewBox="0 0 16 5" fill="none" xmlns="http://www.w3.org/2000/svg">
<path d="M12 2.80005C12 2.26962 12.2107 1.76091 12.5858 1.38584C12.9609 1.01076 13.4696 0.800049 14 0.800049C14.5304 0.800049 15.0391 1.01076 15.4142 1.38584C15.7893 1.76091 16 2.26962 16 2.80005C16 3.33048 15.7893 3.83919 15.4142 4.21426C15.0391 4.58933 14.5304 4.80005 14 4.80005C13.4696 4.80005 12.9609 4.58933 12.5858 4.21426C12.2107 3.83919 12 3.33048 12 2.80005ZM6 2.80005C6 2.26962 6.21071 1.76091 6.58579 1.38584C6.96086 1.01076 7.46957 0.800049 8 0.800049C8.53043 0.800049 9.03914 1.01076 9.41421 1.38584C9.78929 1.76091 10 2.26962 10 2.80005C10 3.33048 9.78929 3.83919 9.41421 4.21426C9.03914 4.58933 8.53043 4.80005 8 4.80005C7.46957 4.80005 6.96086 4.58933 6.58579 4.21426C6.21071 3.83919 6 3.33048 6 2.80005ZM0 2.80005C0 2.26962 0.210714 1.76091 0.585786 1.38584C0.960859 1.01076 1.46957 0.800049 2 0.800049C2.53043 0.800049 3.03914 1.01076 3.41421 1.38584C3.78929 1.76091 4 2.26962 4 2.80005C4 3.33048 3.78929 3.83919 3.41421 4.21426C3.03914 4.58933 2.53043 4.80005 2 4.80005C1.46957 4.80005 0.960859 4.58933 0.585786 4.21426C0.210714 3.83919 0 3.33048 0 2.80005Z" fill="#F4B860"/>
</svg>
