<svg width="16" height="17" viewBox="0 0 16 17" fill="none" xmlns="http://www.w3.org/2000/svg">
<path fill-rule="evenodd" clip-rule="evenodd" d="M15.6808 8.84256C15.6808 8.27525 15.6298 7.72972 15.5354 7.20605H8.00049V10.3008H12.3061C12.1206 11.3008 11.557 12.1481 10.7097 12.7154V14.7228H13.2953C14.808 13.3299 15.6808 11.279 15.6808 8.84256Z" fill="#4285F4"/>
<path fill-rule="evenodd" clip-rule="evenodd" d="M8.00042 16.6599C10.1605 16.6599 11.9715 15.9436 13.2952 14.7217L10.7096 12.7144C9.99321 13.1944 9.07681 13.478 8.00042 13.478C5.91669 13.478 4.15298 12.0707 3.52389 10.1797H0.851074V12.2525C2.16748 14.8672 4.87301 16.6599 8.00042 16.6599Z" fill="#34A853"/>
<path fill-rule="evenodd" clip-rule="evenodd" d="M3.52378 10.1808C3.36378 9.70076 3.27284 9.18803 3.27284 8.66072C3.27284 8.13341 3.36378 7.62068 3.52378 7.14066V5.06787H0.850967C0.309079 6.14791 0 7.36974 0 8.66072C0 9.9517 0.309079 11.1735 0.850967 12.2536L3.52378 10.1808Z" fill="#FBBC05"/>
<path fill-rule="evenodd" clip-rule="evenodd" d="M8.00042 3.84206C9.17504 3.84206 10.2296 4.24572 11.0588 5.03855L13.3533 2.74388C11.9679 1.4529 10.1569 0.660156 8.00042 0.660156C4.87301 0.660156 2.16748 2.45294 0.851074 5.06761L3.52389 7.14041C4.15298 5.2494 5.91669 3.84206 8.00042 3.84206Z" fill="#EA4335"/>
</svg>
