<svg width="4" height="16" viewBox="0 0 4 16" fill="none" xmlns="http://www.w3.org/2000/svg">
<path d="M2 12C2.53043 12 3.03914 12.2107 3.41421 12.5858C3.78928 12.9609 4 13.4696 4 14C4 14.5304 3.78928 15.0391 3.41421 15.4142C3.03914 15.7893 2.53043 16 2 16C1.46957 16 0.960859 15.7893 0.585787 15.4142C0.210714 15.0391 0 14.5304 0 14C0 13.4696 0.210714 12.9609 0.585787 12.5858C0.960859 12.2107 1.46957 12 2 12ZM2 6C2.53043 6 3.03914 6.21072 3.41421 6.58579C3.78928 6.96086 4 7.46957 4 8C4 8.53043 3.78928 9.03914 3.41421 9.41422C3.03914 9.78929 2.53043 10 2 10C1.46957 10 0.960859 9.78929 0.585787 9.41422C0.210714 9.03914 0 8.53043 0 8C0 7.46957 0.210714 6.96086 0.585787 6.58579C0.960859 6.21072 1.46957 6 2 6ZM2 0C2.53043 0 3.03914 0.210714 3.41421 0.585786C3.78928 0.960859 4 1.46957 4 2C4 2.53043 3.78928 3.03914 3.41421 3.41421C3.03914 3.78929 2.53043 4 2 4C1.46957 4 0.960859 3.78929 0.585787 3.41421C0.210714 3.03914 0 2.53043 0 2C0 1.46957 0.210714 0.960859 0.585787 0.585786C0.960859 0.210714 1.46957 0 2 0Z" fill="#F4B860"/>
</svg>
