<svg width="24" height="25" viewBox="0 0 24 25" fill="none" xmlns="http://www.w3.org/2000/svg">
<path d="M12 4.65967C16.41 4.65967 20 8.24967 20 12.6597C20 17.0697 16.41 20.6597 12 20.6597C7.59 20.6597 4 17.0697 4 12.6597C4 8.24967 7.59 4.65967 12 4.65967ZM12 2.65967C6.477 2.65967 2 7.13667 2 12.6597C2 18.1827 6.477 22.6597 12 22.6597C17.523 22.6597 22 18.1827 22 12.6597C22 7.13667 17.523 2.65967 12 2.65967ZM7.55 13.6597C7.53 13.8257 7.5 13.9897 7.5 14.1597C7.5 15.3531 7.97411 16.4977 8.81802 17.3416C9.66193 18.1856 10.8065 18.6597 12 18.6597C13.1935 18.6597 14.3381 18.1856 15.182 17.3416C16.0259 16.4977 16.5 15.3531 16.5 14.1597C16.5 13.9897 16.468 13.8257 16.45 13.6597H7.55ZM10 10.6597V8.65967C10 8.39445 9.89464 8.1401 9.70711 7.95256C9.51957 7.76502 9.26522 7.65967 9 7.65967C8.73478 7.65967 8.48043 7.76502 8.29289 7.95256C8.10536 8.1401 8 8.39445 8 8.65967V10.6597C8 10.9249 8.10536 11.1792 8.29289 11.3668C8.48043 11.5543 8.73478 11.6597 9 11.6597C9.26522 11.6597 9.51957 11.5543 9.70711 11.3668C9.89464 11.1792 10 10.9249 10 10.6597ZM16 10.6597V8.65967C16 8.39445 15.8946 8.1401 15.7071 7.95256C15.5196 7.76502 15.2652 7.65967 15 7.65967C14.7348 7.65967 14.4804 7.76502 14.2929 7.95256C14.1054 8.1401 14 8.39445 14 8.65967V10.6597C14 10.9249 14.1054 11.1792 14.2929 11.3668C14.4804 11.5543 14.7348 11.6597 15 11.6597C15.2652 11.6597 15.5196 11.5543 15.7071 11.3668C15.8946 11.1792 16 10.9249 16 10.6597Z" fill="#799C8A"/>
</svg>
