<svg width="24" height="25" viewBox="0 0 24 25" fill="none" xmlns="http://www.w3.org/2000/svg">
<path d="M10.8746 17.5352C10.8746 17.8335 10.9931 18.1197 11.2041 18.3307C11.4151 18.5416 11.7012 18.6602 11.9996 18.6602C12.298 18.6602 12.5841 18.5416 12.7951 18.3307C13.0061 18.1197 13.1246 17.8335 13.1246 17.5352C13.1246 17.2368 13.0061 16.9506 12.7951 16.7397C12.5841 16.5287 12.298 16.4102 11.9996 16.4102C11.7012 16.4102 11.4151 16.5287 11.2041 16.7397C10.9931 16.9506 10.8746 17.2368 10.8746 17.5352ZM11.2496 10.4102V14.7227C11.2496 14.8258 11.334 14.9102 11.4371 14.9102H12.5621C12.6652 14.9102 12.7496 14.8258 12.7496 14.7227V10.4102C12.7496 10.307 12.6652 10.2227 12.5621 10.2227H11.4371C11.334 10.2227 11.2496 10.307 11.2496 10.4102ZM22.3988 20.7227L12.6488 3.84766C12.5035 3.59688 12.2527 3.47266 11.9996 3.47266C11.7465 3.47266 11.4934 3.59688 11.3504 3.84766L1.6004 20.7227C1.31212 21.2242 1.67305 21.8477 2.24962 21.8477H21.7496C22.3262 21.8477 22.6871 21.2242 22.3988 20.7227ZM4.03555 20.0687L11.9996 6.28281L19.9637 20.0687H4.03555Z" fill="#F4B860"/>
</svg>
